<svg xmlns="http://www.w3.org/2000/svg" width="247.93" height="20.637" viewBox="0 0 247.93 20.637"><defs><style>.a{fill:#f9f9f9;}</style></defs><g transform="translate(-24.826 -100.607)"><path class="a" d="M46.771,174.808,44.7,174.8l.045-10.586,2.024.009-.007,1.518a3.626,3.626,0,0,1,3.265-1.813c2.531.011,3.777,1.843,3.767,4.2l-.029,6.712L51.7,174.83l.028-6.361c.007-1.474-.605-2.666-2.453-2.673-1.628-.007-2.472,1.288-2.479,2.893Z" transform="translate(-13.937 -58.204)"/><path class="a" d="M56.926,171.443a2.257,2.257,0,0,0,2.456,1.992c1.167,0,1.808-.654,1.811-1.4,0-.66-.48-1.168-1.358-1.371l-1.8-.4a3.011,3.011,0,0,1-2.628-2.983,3.608,3.608,0,0,1,3.778-3.328A3.753,3.753,0,0,1,63.2,166.8l-1.831.674a2.052,2.052,0,0,0-2.192-1.77,1.6,1.6,0,0,0-1.767,1.4c0,.638.392,1.1,1.206,1.282l1.714.381c1.912.426,2.92,1.6,2.913,3.159-.007,1.5-1.267,3.274-3.886,3.263-2.906-.013-4.13-1.889-4.3-3.1Z" transform="translate(-12.9 -58.202)"/><path class="a" d="M66.1,159.277a1.485,1.485,0,1,1-1.48,1.49,1.484,1.484,0,0,1,1.48-1.49m-1.08,16.083.045-10.586,2.046.009-.045,10.586Z" transform="translate(-11.942 -58.67)"/><path class="a" d="M71.343,175.012a2.815,2.815,0,0,0,2.871,2.611c2.223.01,3.242-1.131,3.251-3.419l.007-1.518a3.528,3.528,0,0,1-3.243,1.724,5.146,5.146,0,0,1,.044-10.277,3.341,3.341,0,0,1,3.25,1.685l.007-1.474,2.046.009-.042,9.794c-.012,2.685-1.342,5.3-5.327,5.281a4.634,4.634,0,0,1-4.867-3.961Zm6.23-5.716c.009-2.046-1.217-3.4-3-3.4-1.826-.008-3.065,1.33-3.074,3.377-.008,2.068,1.175,3.394,3.045,3.4,1.782.008,3.02-1.33,3.029-3.376" transform="translate(-11.469 -58.184)"/><path class="a" d="M83.669,175.426l-2.068-.009.068-15.933,2.068.009-.029,6.58a3.741,3.741,0,0,1,3.22-1.527c2.531.011,3.777,1.843,3.767,4.2l-.029,6.712-2.068-.008.028-6.361c.007-1.474-.605-2.667-2.453-2.673-1.584-.007-2.427,1.222-2.478,2.785Z" transform="translate(-10.241 -58.649)"/><path class="a" d="M95.776,164.709l2.288.01-.009,1.87-2.288-.01-.022,5.5c0,.969.389,1.454,1.468,1.459a4.124,4.124,0,0,0,.814-.085l-.008,1.761a4.489,4.489,0,0,1-1.409.193,2.748,2.748,0,0,1-2.936-3.028l.024-5.811-2.024-.008.009-1.871.572,0a1.479,1.479,0,0,0,1.635-1.621l.008-1.717,1.893.008Z" transform="translate(-9.232 -58.462)"/><path class="a" d="M101.025,171.631a2.256,2.256,0,0,0,2.454,1.992c1.167,0,1.809-.654,1.812-1.4,0-.66-.48-1.168-1.358-1.371l-1.8-.4a3.013,3.013,0,0,1-2.628-2.984,3.608,3.608,0,0,1,3.778-3.328,3.754,3.754,0,0,1,4.016,2.855l-1.831.674a2.052,2.052,0,0,0-2.193-1.77,1.6,1.6,0,0,0-1.767,1.4c0,.638.392,1.1,1.206,1.282l1.715.381c1.912.426,2.92,1.6,2.913,3.159-.007,1.5-1.267,3.274-3.887,3.263-2.906-.013-4.13-1.888-4.3-3.1Z" transform="translate(-8.484 -58.183)"/><path class="a" d="M110.411,171.41a1.531,1.531,0,0,1,1.534,1.547,1.512,1.512,0,0,1-1.548,1.512,1.494,1.494,0,0,1-1.512-1.524,1.513,1.513,0,0,1,1.526-1.535" transform="translate(-7.509 -57.455)"/><path class="a" d="M125.686,161.976l-.058,13.6-2.156-.009.058-13.6-5.216-.021.009-2L130.91,160l-.009,2Z" transform="translate(-6.564 -58.603)"/><path class="a" d="M133.569,175.64l-2.068-.009.068-15.934,2.068.009-.029,6.58a3.741,3.741,0,0,1,3.22-1.527c2.531.011,3.777,1.843,3.767,4.2l-.029,6.712-2.068-.008.028-6.361c.007-1.474-.605-2.667-2.453-2.673-1.584-.008-2.427,1.222-2.478,2.785Z" transform="translate(-5.243 -58.628)"/><path class="a" d="M143.858,159.61a1.485,1.485,0,1,1-1.48,1.49,1.484,1.484,0,0,1,1.48-1.49m-1.08,16.083.045-10.586,2.046.009-.045,10.586Z" transform="translate(-4.154 -58.637)"/><path class="a" d="M149.869,175.25l-2.068-.009.045-10.586,2.024.009-.007,1.518a3.626,3.626,0,0,1,3.265-1.813c2.531.011,3.777,1.843,3.767,4.2l-.029,6.712-2.068-.008.027-6.361c.007-1.474-.605-2.666-2.453-2.673-1.628-.007-2.471,1.288-2.479,2.893Z" transform="translate(-3.611 -58.16)"/><path class="a" d="M164.039,169.652l4.573,6.138-2.6-.011L162.58,171.1l-1.481,1.469-.013,3.192-2.046-.009.068-15.934,2.046.009-.043,10.035,4.6-4.667,2.86.012Z" transform="translate(-2.485 -58.616)"/><path class="a" d="M172.476,165.037l2.287.011-.009,1.87-2.288-.011-.022,5.5c0,.969.389,1.454,1.469,1.459a4.214,4.214,0,0,0,.813-.084l-.008,1.761a4.536,4.536,0,0,1-1.409.191,2.748,2.748,0,0,1-2.936-3.028l.024-5.811-2.024-.008.009-1.871.572,0a1.479,1.479,0,0,0,1.635-1.621l.008-1.717,1.893.008Z" transform="translate(-1.551 -58.429)"/><path class="a" d="M179.277,169.325l2.864-.406c.638-.085.815-.416.817-.789,0-1.035-.675-1.9-2.282-1.9a2.246,2.246,0,0,0-2.407,2.126l-1.979-.471a4.083,4.083,0,0,1,4.349-3.415c3.17.014,4.394,1.824,4.386,3.893l-.023,5.3a9.907,9.907,0,0,0,.124,1.738l-2.023-.009a7.686,7.686,0,0,1-.106-1.43,3.855,3.855,0,0,1-3.418,1.745,3.3,3.3,0,0,1-3.53-3.183c.009-1.893,1.4-2.944,3.228-3.2m3.669,1.534,0-.483-3.237.469a1.583,1.583,0,0,0-1.548,1.579,1.6,1.6,0,0,0,1.71,1.548,2.776,2.776,0,0,0,3.073-3.112" transform="translate(-0.782 -58.15)"/><path class="a" d="M189.168,175.419l-2.068-.01.045-10.586,2.023.009-.006,1.518a3.625,3.625,0,0,1,3.265-1.813c2.53.011,3.777,1.843,3.767,4.2l-.03,6.712-2.068-.008.029-6.361c.007-1.474-.605-2.666-2.454-2.673-1.628-.007-2.47,1.289-2.478,2.895Z" transform="translate(0.325 -58.143)"/><path class="a" d="M203.339,169.82l4.573,6.139-2.6-.012-3.436-4.68-1.48,1.469-.014,3.192-2.046-.009.068-15.934,2.046.008-.043,10.036,4.6-4.668,2.86.012Z" transform="translate(1.451 -58.599)"/><path class="a" d="M210.17,171.837a1.531,1.531,0,0,1,1.534,1.547,1.512,1.512,0,0,1-1.548,1.512,1.494,1.494,0,0,1-1.512-1.524,1.513,1.513,0,0,1,1.526-1.535" transform="translate(2.483 -57.412)"/><path class="a" d="M218.75,168.189a7.734,7.734,0,0,1,7.78-8.088c3.566.015,6.066,1.964,6.845,4.982l-2,.7a4.624,4.624,0,0,0-4.85-3.7c-2.838-.012-5.554,2.045-5.571,6.117s2.681,6.173,5.519,6.186a4.962,4.962,0,0,0,4.99-3.721l1.911.712a6.811,6.811,0,0,1-6.909,4.989c-4.027-.018-7.735-2.96-7.712-8.176" transform="translate(3.495 -58.588)"/><rect class="a" width="15.934" height="2.068" transform="matrix(0.004, -1, 1, 0.004, 239.265, 117.488)"/><path class="a" d="M243.059,175.952a3.916,3.916,0,0,1-3.945-4.264l.029-6.669,2.069.009-.026,6.361c-.007,1.452.648,2.732,2.387,2.739a2.394,2.394,0,0,0,2.52-2.7l.026-6.382,2.068.009-.036,8.626a17.489,17.489,0,0,0,.1,1.96l-1.981-.009a9.334,9.334,0,0,1-.083-1.277,3.451,3.451,0,0,1-3.131,1.593" transform="translate(5.534 -58.095)"/><path class="a" d="M250.52,176.142l.067-15.935,2.047.009-.03,6.845a3.859,3.859,0,0,1,3.506-1.79c3.214.014,4.853,2.486,4.84,5.567-.013,3.149-1.805,5.627-4.954,5.613a3.774,3.774,0,0,1-3.424-1.842l-.007,1.54Zm5.209-9.045c-1.826-.008-3.153,1.417-3.163,3.705s1.3,3.792,3.131,3.8c1.891.008,3.13-1.483,3.14-3.772s-1.194-3.724-3.108-3.733" transform="translate(6.677 -58.577)"/><path class="a" d="M263.409,172.064a1.531,1.531,0,0,1,1.533,1.547,1.511,1.511,0,0,1-1.547,1.512,1.493,1.493,0,0,1-1.513-1.524,1.514,1.514,0,0,1,1.527-1.535" transform="translate(7.815 -57.389)"/><rect class="a" width="15.604" height="2.2" transform="translate(24.826 116.57) rotate(-89.754)"/></g></svg>