<?xml version="1.0" encoding="UTF-8"?> <svg xmlns="http://www.w3.org/2000/svg" xmlns:xlink="http://www.w3.org/1999/xlink" version="1.1" id="Layer_1" x="0px" y="0px" viewBox="0 0 270 158.1" style="enable-background:new 0 0 270 158.1;" xml:space="preserve"> <style type="text/css"> .st0{fill:#C26538;} </style> <g> <g> <rect x="29.5" y="147.2" transform="matrix(4.293535e-03 -1 1 4.293535e-03 -112.3968 183.2633)" class="st0" width="12.6" height="1.8"></rect> <path class="st0" d="M41.4,154.4l-1.7,0l0-8.5l1.6,0l0,1.2c0.5-0.9,1.6-1.5,2.6-1.5c2,0,3,1.5,3,3.4l0,5.4l-1.7,0l0-5.1 c0-1.2-0.5-2.2-2-2.2c-1.3,0-2,1-2,2.3L41.4,154.4z"></path> <path class="st0" d="M50.4,151.7c0.1,1,1,1.7,2,1.6c0.9,0,1.5-0.5,1.5-1.1c0-0.5-0.4-0.9-1.1-1.1l-1.5-0.3 c-1.2-0.2-2.1-1.2-2.1-2.4c0.1-1.6,1.5-2.8,3-2.7c1.5-0.1,2.9,0.8,3.2,2.3l-1.5,0.5c-0.1-0.9-0.9-1.5-1.8-1.4 c-0.7-0.1-1.3,0.4-1.4,1.1c0,0.5,0.3,0.9,1,1l1.4,0.3c1.3,0.1,2.3,1.2,2.4,2.6c-0.1,1.6-1.4,2.7-3,2.6c0,0-0.1,0-0.1,0 c-1.6,0.2-3.1-0.9-3.5-2.5L50.4,151.7z"></path> <path class="st0" d="M58.6,141.5c0.7,0,1.2,0.5,1.2,1.2s-0.5,1.2-1.2,1.2s-1.2-0.5-1.2-1.2c0,0,0,0,0,0 C57.4,142,57.9,141.5,58.6,141.5 M57.7,154.5l0-8.5l1.7,0l0,8.5L57.7,154.5z"></path> <path class="st0" d="M63.2,154.6c0.1,1.2,1.1,2.1,2.3,2.1c1.8,0,2.6-0.9,2.6-2.8l0-1.2c-0.5,0.9-1.6,1.5-2.6,1.4 c-2.3-0.1-4.1-2.1-3.9-4.4c0.1-2.1,1.8-3.8,4-3.9c1.1-0.1,2.1,0.4,2.6,1.4l0-1.2l1.7,0l0,7.9c0,2.2-1.1,4.3-4.3,4.3 c-1.9,0.1-3.7-1.3-3.9-3.2L63.2,154.6z M68.2,150c-0.1-1.4-1.4-2.3-2.7-2.2s-2.3,1.4-2.2,2.7c0.1,1.3,1.2,2.2,2.5,2.2 c1.4,0,2.5-1.1,2.5-2.5C68.3,150.1,68.2,150,68.2,150"></path> <path class="st0" d="M74.2,154.5l-1.7,0l0.1-12.9l1.7,0l0,5.3c0.6-0.8,1.6-1.3,2.6-1.2c2,0,3,1.5,3,3.4l0,5.4l-1.7,0l0-5.1 c0-1.2-0.5-2.2-2-2.2c-1.3,0-2,1-2,2.2L74.2,154.5z"></path> <path class="st0" d="M84.7,146l1.8,0l0,1.5l-1.8,0l0,4.4c0,0.8,0.3,1.2,1.2,1.2c0.2,0,0.4,0,0.7-0.1l0,1.4 c-0.4,0.1-0.8,0.2-1.1,0.2c-1.2,0.1-2.3-0.8-2.4-2c0-0.1,0-0.3,0-0.4l0-4.7l-1.6,0l0-1.5h0.5c0.7,0.1,1.2-0.4,1.3-1.1 c0-0.1,0-0.2,0-0.3l0-1.4l1.5,0L84.7,146z"></path> <path class="st0" d="M89.6,151.8c0.1,1,1,1.7,2,1.6c0.9,0,1.5-0.5,1.5-1.1c0-0.5-0.4-0.9-1.1-1.1l-1.5-0.3 c-1.2-0.2-2.1-1.2-2.1-2.4c0.1-1.6,1.5-2.8,3.1-2.7c1.5-0.1,2.9,0.8,3.2,2.3l-1.5,0.5c-0.1-0.9-0.9-1.5-1.8-1.4 c-0.7-0.1-1.3,0.4-1.4,1.1c0,0.5,0.3,0.9,1,1l1.4,0.3c1.3,0.1,2.3,1.2,2.4,2.6c-0.1,1.6-1.4,2.7-3,2.6c0,0-0.1,0-0.1,0 c-1.6,0.2-3.1-0.9-3.5-2.5L89.6,151.8z"></path> <path class="st0" d="M97.9,152.3c0.7,0,1.2,0.6,1.2,1.2c0,0,0,0,0,0c0,0.7-0.5,1.2-1.2,1.2c0,0,0,0,0,0c-0.7,0-1.2-0.5-1.2-1.2 c0,0,0,0,0,0C96.7,152.8,97.2,152.3,97.9,152.3C97.9,152.3,97.9,152.3,97.9,152.3"></path> <path class="st0" d="M111,143.7l0,11l-1.7,0l0-11l-4.2,0l0-1.6l10.2,0l0,1.6L111,143.7z"></path> <path class="st0" d="M118.5,154.7l-1.7,0l0.1-12.9l1.7,0l0,5.3c0.6-0.8,1.6-1.3,2.6-1.2c2,0,3,1.5,3,3.4l0,5.4l-1.7,0l0-5.1 c0-1.2-0.5-2.2-2-2.2c-1.3,0-2,1-2,2.2L118.5,154.7z"></path> <path class="st0" d="M127.7,141.8c0.7,0,1.2,0.5,1.2,1.2c0,0.7-0.5,1.2-1.2,1.2s-1.2-0.5-1.2-1.2c0,0,0,0,0,0 C126.5,142.3,127,141.8,127.7,141.8 M126.8,154.8l0-8.5l1.7,0l0,8.5L126.8,154.8z"></path> <path class="st0" d="M133,154.8l-1.7,0l0-8.5l1.6,0l0,1.2c0.5-0.9,1.6-1.5,2.6-1.5c2,0,3,1.5,3,3.4l0,5.4l-1.7,0l0-5.1 c0-1.2-0.5-2.2-2-2.2c-1.3,0-2,1-2,2.3L133,154.8z"></path> <path class="st0" d="M145.3,149.9l3.7,5l-2.1,0l-2.8-3.8l-1.2,1.2l0,2.6l-1.7,0l0.1-12.9l1.7,0l0,8.1l3.7-3.8l2.3,0L145.3,149.9z"></path> <path class="st0" d="M152.9,146.3l1.8,0l0,1.5l-1.8,0l0,4.4c0,0.8,0.3,1.2,1.2,1.2c0.2,0,0.4,0,0.7-0.1l0,1.4 c-0.4,0.1-0.8,0.2-1.1,0.2c-1.2,0.1-2.3-0.8-2.4-2c0-0.1,0-0.3,0-0.4l0-4.7l-1.6,0l0-1.5h0.5c0.7,0.1,1.2-0.4,1.3-1.1 c0-0.1,0-0.2,0-0.3l0-1.4l1.5,0L152.9,146.3z"></path> <path class="st0" d="M159,150l2.3-0.3c0.5-0.1,0.7-0.3,0.7-0.6c0-0.8-0.5-1.5-1.8-1.5c-1-0.1-1.9,0.7-1.9,1.7c0,0,0,0,0,0 l-1.6-0.4c0.3-1.7,1.8-2.9,3.5-2.8c2.6,0,3.5,1.5,3.5,3.1l0,4.3c0,0.5,0,0.9,0.1,1.4l-1.6,0c-0.1-0.4-0.1-0.8-0.1-1.2 c-0.6,0.9-1.7,1.5-2.8,1.4c-1.4,0.1-2.7-0.9-2.8-2.3s0.9-2.7,2.3-2.8C158.8,150,158.9,150,159,150 M161.9,151.2v-0.4l-2.6,0.4 c-0.7,0-1.2,0.6-1.2,1.3c0,0.7,0.6,1.3,1.3,1.3c0,0,0,0,0,0c1.2,0.1,2.3-0.7,2.5-2C162,151.6,162,151.4,161.9,151.2"></path> <path class="st0" d="M167.9,154.9l-1.7,0l0-8.5l1.6,0v1.2c0.5-0.9,1.6-1.5,2.6-1.5c2,0,3,1.5,3,3.4l0,5.4l-1.7,0l0-5.1 c0-1.2-0.5-2.2-2-2.2c-1.3,0-2,1-2,2.3L167.9,154.9z"></path> <path class="st0" d="M180.2,150l3.7,5l-2.1,0l-2.8-3.8l-1.2,1.2l0,2.6l-1.7,0l0.1-12.9l1.7,0l0,8.1l3.7-3.8l2.3,0L180.2,150z"></path> <path class="st0" d="M186.6,152.6c0.7,0,1.2,0.6,1.2,1.2c0,0,0,0,0,0c0,0.7-0.5,1.2-1.2,1.2c0,0,0,0,0,0c-0.7,0-1.2-0.5-1.2-1.2 c0,0,0,0,0,0C185.3,153.2,185.9,152.6,186.6,152.6C186.5,152.6,186.6,152.6,186.6,152.6"></path> <path class="st0" d="M194.3,148.7c-0.2-3.4,2.5-6.4,6-6.5c0.1,0,0.2,0,0.3,0c2.6-0.2,4.9,1.5,5.5,4l-1.6,0.6c-0.4-1.8-2-3.1-3.9-3 c-2.3,0-4.5,1.7-4.5,4.9s2.2,5,4.5,5c1.9,0.1,3.6-1.2,4-3l1.5,0.6c-0.7,2.5-3,4.2-5.6,4c-3.4,0-6.2-2.7-6.2-6.1 C194.3,149.1,194.3,148.9,194.3,148.7"></path> <rect x="202.5" y="147.8" transform="matrix(3.999968e-03 -1 1 3.999968e-03 59.395 356.9907)" class="st0" width="12.9" height="1.7"></rect> <path class="st0" d="M215.6,155.4c-1.7,0-3.2-1.4-3.2-3.1c0-0.1,0-0.2,0-0.3l0-5.4l1.7,0l0,5.1c0,1.2,0.5,2.2,1.9,2.2 c1.1,0.1,2-0.7,2-1.8c0-0.1,0-0.2,0-0.4l0-5.2l1.7,0l0,7c0,0.5,0,1.1,0.1,1.6l-1.6,0c0-0.3-0.1-0.7-0.1-1 C217.6,155,216.6,155.5,215.6,155.4"></path> <path class="st0" d="M222.5,155.2l0.1-12.9l1.7,0l0,5.5c0.6-1,1.7-1.5,2.8-1.4c2.6,0,3.9,2,3.9,4.5c0,2.5-1.5,4.5-4,4.5 c-1.1,0.1-2.2-0.5-2.8-1.5l0,1.2L222.5,155.2z M226.7,147.9c-1.5,0-2.5,1.1-2.6,3s1.1,3.1,2.5,3.1c1.5,0,2.5-1.2,2.5-3 S228.3,147.9,226.7,147.9"></path> <path class="st0" d="M233.9,152.8c0.7,0,1.2,0.6,1.2,1.2c0,0,0,0,0,0c0,0.7-0.5,1.2-1.2,1.2c0,0,0,0,0,0c-0.7,0-1.2-0.5-1.2-1.2 c0,0,0,0,0,0C232.6,153.4,233.1,152.8,233.9,152.8C233.8,152.8,233.8,152.8,233.9,152.8"></path> </g> <g> <path class="st0" d="M19,121.8v-13H4v13H0V92.6h4v12.5H19V92.6h4v29.2L19,121.8z"></path> <path class="st0" d="M43.2,92c7.3,0,14.7,5.4,14.7,15.2s-7.3,15.2-14.7,15.2s-14.7-5.5-14.7-15.2S35.9,92,43.2,92 M43.2,118.7 c5.4,0,10.5-3.9,10.5-11.5s-5.1-11.5-10.5-11.5s-10.5,3.9-10.5,11.5S37.8,118.7,43.2,118.7"></path> <path class="st0" d="M72.9,96.4v25.5h-4V96.4h-9.8v-3.7h23.6v3.7H72.9z"></path> <path class="st0" d="M86.8,121.8V92.6h17.8v3.7H90.9v9h12.4v3.8H90.9v8.9h13.7v3.8L86.8,121.8z"></path> <path class="st0" d="M110.8,121.8V92.6h4V118h13.8v3.8L110.8,121.8z"></path> <rect x="143.6" y="92.6" class="st0" width="4.1" height="29.2"></rect> <path class="st0" d="M175,121.8L159.2,98v23.8h-4V92.6h5.4l14.6,22.4V92.6h4v29.2L175,121.8z"></path> <path class="st0" d="M201.6,100.5c-0.5-3-3.1-5.2-6.2-5c-3.3,0-5.6,2.1-5.6,4.9c0,2.1,1.3,3.7,3.7,4.2l4.4,0.9 c4.9,1.1,7.6,4.1,7.6,8.2c0,4.5-3.9,8.7-10.1,8.7c-7,0-10.4-4.5-10.9-8.7l3.9-1.2c0.2,3.7,3.3,6.5,7,6.3c0,0,0,0,0,0 c4,0,6-2.1,6-4.7c0-2.1-1.4-3.9-4.4-4.5l-4.2-0.9c-4.2-0.9-7.1-3.6-7.1-8c0-4.6,4.2-8.7,9.6-8.7c6.6,0,9.2,4.1,9.9,7.3 L201.6,100.5z"></path> <rect x="211" y="92.6" class="st0" width="4.1" height="29.2"></rect> <path class="st0" d="M222.6,121.8V92.6h10.2c7.4,0,13.9,5.1,13.9,14.7c0,9.6-6.6,14.5-14,14.5L222.6,121.8z M232.6,118.2 c5.4,0,9.9-3.6,9.9-11c0-7.4-4.5-11.1-9.8-11.1h-6.1v22L232.6,118.2z"></path> <path class="st0" d="M252.2,121.8V92.6H270v3.7h-13.7v9h12.4v3.8h-12.4v8.9H270v3.8L252.2,121.8z"></path> </g> <g> <path class="st0" d="M123.5,18.4h-3.7v29.8h3.7V34.7h5.3v-3.4h-5.3L123.5,18.4z"></path> <path class="st0" d="M141.2,34.7h5.3v13.4h3.7V18.4h-3.7v12.9h-5.3V34.7z"></path> <rect x="133.2" y="28.1" class="st0" width="3.5" height="20.1"></rect> <path class="st0" d="M135,22.8c1.5,0,2.7-1.2,2.7-2.6s-1.2-2.7-2.6-2.7c-1.5,0-2.7,1.2-2.7,2.6c0,0,0,0,0,0 C132.4,21.6,133.5,22.7,135,22.8"></path> <path class="st0" d="M135,65c-18,0-32.5-14.6-32.5-32.5S117,0,135,0c18,0,32.5,14.6,32.5,32.5C167.5,50.5,152.9,65,135,65 M135,2.7c-16.5,0-29.8,13.4-29.8,29.8s13.4,29.8,29.8,29.8s29.8-13.4,29.8-29.8C164.8,16,151.5,2.7,135,2.7"></path> </g> </g> </svg> 