<?xml version="1.0" encoding="utf-8"?>
<!-- Generator: Adobe Illustrator 26.5.0, SVG Export Plug-In . SVG Version: 6.00 Build 0)  -->
<svg version="1.1" id="Layer_1" xmlns="http://www.w3.org/2000/svg" xmlns:xlink="http://www.w3.org/1999/xlink" x="0px" y="0px"
	 width="17px" height="17px" viewBox="0 0 17 17" style="enable-background:new 0 0 17 17;" xml:space="preserve">
<g>
	<path style="fill:#C26538;" d="M8.5,0C3.8,0,0,3.8,0,8.5S3.8,17,8.5,17S17,13.2,17,8.5S13.2,0,8.5,0z M7,13.4H6.6
		c-0.7-1-1.6-2.7-2.2-4.3l1.4-0.9c0.3,1.1,0.8,2.4,1,2.9c1.1-2.7,2.7-5.7,4.1-7.5h1.8C10.5,6.3,8.6,9.9,7,13.4z"/>
	<path style="fill:#1A2338;" d="M6.8,11.1c-0.3-0.6-0.7-1.8-1-2.9L4.4,9.1c0.6,1.6,1.5,3.2,2.2,4.3H7c1.5-3.4,3.5-7.1,5.6-9.7h-1.8
		C9.5,5.4,7.9,8.4,6.8,11.1z"/>
</g>
</svg>
